<?xml version="1.0" encoding="UTF-8"?>
<svg 
  xmlns="http://www.w3.org/2000/svg" 
  viewBox="200 0 600 631.49"
  fill="currentColor"
>
  <path fill="#558025" d="M312.34,307.12l-75.74-203.48c-6.05-16.24,11.71-31.05,26.6-22.18l137.57,81.96"/>
  <path fill="#558025" d="M667.44,307.12l75.74-203.48c6.05-16.24-11.71-31.05-26.6-22.18l-133.53,79.55"/>
  <path fill="#689A2F" d="M717.35,361.34l-99.74-206.98c-2.91-6.72-9.53-11.07-16.85-11.07h-222.32c-7.01,0-13.4,3.99-16.49,10.28l-101.45,207.05c-3.82,7.8-1.65,17.21,5.2,22.56l212.38,165.63c6.78,5.29,16.33,5.16,22.97-.31l211.14-165.7c6.31-5.2,8.42-13.95,5.17-21.46Z"/>
</svg>

